<svg viewBox="0 0 234 42" fill="currentColor" xmlns="http://www.w3.org/2000/svg">
<path d="M0 21V0H21H42V3V6H27H12V12V18H24H36V21V24H24H12V30V36H27H42V39V42H21H0V21ZM48 21V0H54H60V3V6H63H66V9V12H69H72V9V6H75H78V3V0H84H90V21V42H84H78V33V24H75H72V27V30H69H66V27V24H63H60V33V42H54H48V21ZM96 21V0H114H132V3V6H135H138V15V24H135H132V27V30H120H108V36V42H102H96V21ZM126 15V6H117H108V15V24H117H126V15ZM150 3V0H168H186V3V6H180H174V24V42H168H162V24V6H156H150V3ZM198 9V0H204H210V9V18H216H222V9V0H228H234V9V18H231H228V21V24H225H222V33V42H216H210V33V24H207H204V21V18H201H198V9Z" fill="currentColor"/>
</svg>
