<svg viewBox="0 0 234 42" fill="currentColor" xmlns="http://www.w3.org/2000/svg">
<path d="M0 21V0H21H42V3V6H27H12V12V18H24H36V21V24H24H12V30V36H27H42V39V42H21H0V21ZM48 21V0H66H84V3V6H87H90V15V24H84H78V27V30H81H84V33V36H87H90V39V42H81H72V39V36H69H66V33V30H63H60V36V42H54H48V21ZM78 12V6H69H60V15V24H66H72V21V18H75H78V12ZM96 21V0H114H132V3V6H135H138V15V24H132H126V27V30H129H132V33V36H135H138V39V42H129H120V39V36H117H114V33V30H111H108V36V42H102H96V21ZM126 12V6H117H108V15V24H114H120V21V18H123H126V12ZM150 3V0H165H180V3V6H183H186V21V36H183H180V39V42H165H150V39V36H147H144V21V6H147H150V3ZM174 21V6H165H156V21V36H165H174V21ZM192 21V0H210H228V3V6H231H234V15V24H228H222V27V30H225H228V33V36H231H234V39V42H225H216V39V36H213H210V33V30H207H204V36V42H198H192V21ZM222 12V6H213H204V15V24H210H216V21V18H219H222V12Z" fill="currentColor"/>
</svg>
