<svg viewBox="0 0 426 42" fill="currentColor" xmlns="http://www.w3.org/2000/svg">
<path d="M0 21V0H6H12V3V6H15H18V9V12H21H24V15V18H27H30V9V0H36H42V21V42H36H30V39V36H27H24V33V30H21H18V27V24H15H12V33V42H6H0V21ZM54 3V0H69H84V3V6H87H90V21V36H87H84V39V42H69H54V39V36H51H48V21V6H51H54V3ZM78 21V6H69H60V21V36H69H78V21ZM102 3V0H120H138V3V6H132H126V24V42H120H114V24V6H108H102V3ZM192 21V0H213H234V3V6H219H204V12V18H216H228V21V24H216H204V33V42H198H192V21ZM246 3V0H261H276V3V6H279H282V21V36H279H276V39V42H261H246V39V36H243H240V21V6H243H246V3ZM270 21V6H261H252V21V36H261H270V21ZM288 18V0H294H300V18V36H309H318V18V0H324H330V18V36H327H324V39V42H309H294V39V36H291H288V18ZM336 21V0H342H348V3V6H351H354V9V12H357H360V15V18H363H366V9V0H372H378V21V42H372H366V39V36H363H360V33V30H357H354V27V24H351H348V33V42H342H336V21ZM384 21V0H399H414V3V6H417H420V9V12H423H426V21V30H423H420V33V36H417H414V39V42H399H384V21ZM408 9V6H402H396V21V36H402H408V33V30H411H414V21V12H411H408V9Z" fill="currentColor"/>
</svg>
