<svg viewBox="0 0 852 42" fill="currentColor" xmlns="http://www.w3.org/2000/svg">
<path d="M0 9V0H6H12V9V18H18H24V9V0H30H36V9V18H33H30V21V24H27H24V33V42H18H12V33V24H9H6V21V18H3H0V9ZM48 3V0H60H72V3V6H75H78V9V12H72H66V9V6H60H54V12V18H66H78V21V24H81H84V30V36H81H78V39V42H63H48V39V36H45H42V33V30H48H54V33V36H63H72V30V24H60H48V21V18H45H42V12V6H45H48V3ZM96 3V0H111H126V3V6H129H132V21V36H129H126V39V42H111H96V39V36H93H90V21V6H93H96V3ZM120 21V6H111H102V21V36H111H120V21ZM198 3V0H207H216V3V6H219H222V9V12H225H228V27V42H222H216V36V30H207H198V36V42H192H186V27V12H189H192V9V6H195H198V3ZM210 9V6H207H204V9V12H201H198V18V24H207H216V18V12H213H210V9ZM234 21V0H252H270V3V6H273H276V15V24H270H264V27V30H267H270V33V36H273H276V39V42H267H258V39V36H255H252V33V30H249H246V36V42H240H234V21ZM264 12V6H255H246V15V24H252H258V21V18H261H264V12ZM294 3V0H306H318V3V6H321H324V9V12H318H312V9V6H306H300V9V12H297H294V21V30H297H300V33V36H306H312V33V30H318H324V33V36H321H318V39V42H306H294V39V36H291H288V33V30H285H282V21V12H285H288V9V6H291H294V3ZM342 3V0H351H360V3V6H363H366V9V12H369H372V27V42H366H360V36V30H351H342V36V42H336H330V27V12H333H336V9V6H339H342V3ZM354 9V6H351H348V9V12H345H342V18V24H351H360V18V12H357H354V9ZM378 21V0H393H408V3V6H411H414V9V12H417H420V21V30H417H414V33V36H411H408V39V42H393H378V21ZM402 9V6H396H390V21V36H396H402V33V30H405H408V21V12H405H402V9ZM426 21V0H447H468V3V6H453H438V12V18H450H462V21V24H450H438V30V36H453H468V39V42H447H426V21ZM522 21V0H540H558V3V6H561H564V15V24H558H552V27V30H555H558V33V36H561H564V39V42H555H546V39V36H543H540V33V30H537H534V36V42H528H522V21ZM552 12V6H543H534V15V24H540H546V21V18H549H552V12ZM570 21V0H591H612V3V6H597H582V12V18H594H606V21V24H594H582V30V36H597H612V39V42H591H570V21ZM630 3V0H642H654V3V6H657H660V9V12H654H648V9V6H642H636V9V12H633H630V21V30H633H636V33V36H642H648V33V30H654H660V33V36H657H654V39V42H642H630V39V36H627H624V33V30H621H618V21V12H621H624V9V6H627H630V3ZM672 3V0H687H702V3V6H705H708V21V36H705H702V39V42H687H672V39V36H669H666V21V6H669H672V3ZM696 21V6H687H678V21V36H687H696V21ZM714 21V0H732H750V3V6H753H756V15V24H750H744V27V30H747H750V33V36H753H756V39V42H747H738V39V36H735H732V33V30H729H726V36V42H720H714V21ZM744 12V6H735H726V15V24H732H738V21V18H741H744V12ZM762 21V0H777H792V3V6H795H798V9V12H801H804V21V30H801H798V33V36H795H792V39V42H777H762V21ZM786 9V6H780H774V21V36H780H786V33V30H789H792V21V12H789H786V9ZM816 3V0H828H840V3V6H843H846V9V12H840H834V9V6H828H822V12V18H834H846V21V24H849H852V30V36H849H846V39V42H831H816V39V36H813H810V33V30H816H822V33V36H831H840V30V24H828H816V21V18H813H810V12V6H813H816V3Z" fill="currentColor"/>
</svg>
